<svg width="331" height="486" fill="none" xmlns="http://www.w3.org/2000/svg"><g opacity=".1" fill="#FFE2F4"><path d="M201.171 154.097c-1.085-3.43-5.17-12.213-12.825-19.902 1.437 3.393 3.678 10.246 1.153 10.519-.927-5.222-6.005-16.914-18.9-21.908 3.384 3.36 9.1 10.193 4.892 10.647-3.225-5.151-13.322-15.698-27.907-16.679l9.922 7.976c-5.294-2.976-19.785-8.615-35.402-7.355-15.616 1.259-21.548 2.502-22.561 2.966 7.326-1.145 25.108-2.07 37.628 3.39-10.208.747-32.589 2.771-40.446 4.896l19.282 1.113c-8.728 1.296-29.368 5.935-42.097 14.12-12.729 8.185-17.943 14.352-18.96 16.413 4.88-5.67 20.178-17.928 42.343-21.597l-15.558 8.597 32.391-10.413-18.599 9.989c8.381-2.855 26.194-8.679 30.402-9.133 4.209-.454-9.396 4.916-16.725 7.658l31.216-6.561-17.309 7.189 31.332-5.509-15.904 5.441 34.011-.476-17.885 1.929c8.064.727 25.334 2.908 29.911 5.82l-19.866-1.582c7.556.959 23.672 4.258 27.684 9.785 5.015 6.909-10.859-6.811-21.494-6.728-4.789.038-8.05-.337-10.124-.783l-2.847-1.01c.34.273 1.236.663 2.847 1.01l7.963 2.825c-7.187-2.219-19.159-4.504-30.33-2.261-13.749 2.76-19.219 7.572-20.235 9.633 5.537-2.904 16.936-7.681 18.238-3.564 1.628 5.145-7.71-2.362-23.621 7.869-12.729 8.185-19.351 17.698-21.071 21.431 3.163-5.131 11.899-15.758 21.532-17.223-4.759 3.529-15.775 12.451-21.77 19.909l12.87-8.838c-5.734 4.343-18.306 16.556-22.722 30.655-4.417 14.1-5.603 20.117-5.644 21.363l3.87-8.4c-2.582 7.197-6.7 24.35-2.51 35.393-1.083-5.027-2.452-16.552.737-22.43-.394 2.881-.344 10.467 3.01 17.768-.693-4.714-1.424-15.917 1.206-23.012l.56 14.84 1.904-21.492.561 14.84 3.31-23.24-.023 14.371c.591-4.321 2.079-14.06 3.301-18.449 1.223-4.389.029 6.737-.721 12.849.906-6.306 3.842-20.317 8.339-25.911l-4.123 20.667c1.53-7.083 5.153-21.949 7.402-24.745 2.248-2.797-1.183 8.642-3.179 14.711 2.112-5.018 6.71-15.518 8.209-17.383 1.499-1.864-2.038 7.315-3.993 12.138 3.281-5.675 10.219-17.492 11.718-19.357 1.499-1.864.143 7.789-.722 12.85 1.216-5.098 4.303-16.11 6.926-19.373 2.624-3.263.07 5.491-1.535 10.277 2.112-5.018 7.037-15.447 9.844-17.027 2.808-1.58-.867 6.657-3.056 10.973l10.774-13.402-1.413 6.538 9.714-8.498-.361 6.425c.978-2.412 3.892-7.231 7.725-7.219 3.834.012-1.213 3.501-4.215 5.244l16.141-8.127-10.881 7.559c5.419-2.358 16.232-6.327 16.134-3.337-.098 2.991-7.525 4.182-11.227 4.404l11.335 1.438c-4.17.805-14.265 3.881-21.287 9.747-7.022 5.866-11.588 10.829-12.993 12.577 4.759-3.529 14.041-9.816 13.101-6.735-1.175 3.852-13.101 6.735-20.135 20.265-5.627 10.825-7.039 16.724-7.041 18.321 2.345-4.51 7.502-14.113 9.376-16.444 2.342-2.913-6.45 14-9.268 22.286l7.732-12.01c-2.618 5.25-7.835 17.875-7.755 26.38l5.275-10.147c-2.503 6.301-7.115 20.563-5.535 27.204l3.992-12.138c-1.571 8.329-3.737 28.075.171 40.425l2.134-19.387 3.955 11.812.03-19.16 6.996 10.42-5.115-17.541 6.413 9.951-4.885-15.438 7.818 8.204-6.052-16.376 6.766 8.316-4.646-18.124 6.297 8.9-1.844-16.83 5.245 9.013-2.311-16.248 6.182 7.848-1.376-17.413 4.892 10.648-.676-15.892 5.245 9.013-3.717-14.499 7.234 7.734.015-9.581 3.264 5.502 2.012-15.649 2.55 13.56.606-13.901 3.84 10.761.721-12.849 3.963 7.022 1.889-11.911 1.267 11.571 8.655-3.595c-3.277 2.482-10.51 9.01-13.231 15.264-2.722 6.253-4.262 9.683-4.692 10.617 3.824-3.961 11.402-11.554 11.119-10.247-.353 1.635-12.877 13.629-13.238 20.054l9.714-8.498c-2.304 3.264-7.102 11.941-7.863 20.538l.223 6.894 4.223-10.035c-1.917 5.174-4.796 17.44-.974 25.116l5.283-14.938c.184 6.544 2.304 21.038 9.308 26.668l-.093-15.422c1.004 5.922 5.508 20.159 15.498 29.725l-4.992-21.28 8.524 4.934-10.498-13.235 11.442 7.28-14-16.051 13.078 7.636-12.594-17.799 12.026 7.749c-3.694-4.568-11.174-14.546-11.543-17.912-.368-3.366 6.697 2.825 10.275 6.341-3.847-5.97-11.261-18.261-10.137-19.66 1.124-1.398 5.916 3.797 8.171 6.569-3.264-5.502-9.323-17.087-7.449-19.418 1.873-2.331 7.006 4.033 9.338 7.507l-8.855-17.67 12.256 9.853c-3.77-5.27-10.82-16.181-8.854-17.67 2.457-1.862 14.929 19.675 21.534 55.681 6.605 36.006 26.712 107.806 33.47 120.912 6.758 13.107 34.244 74.532 41.118 88.691 5.499 11.327 14.333 27.19 18.063 33.705l7.026-8.74c-15.224-30.464-47.604-96.399-55.333-116.425-9.661-25.033-26.419-71.119-35.705-112.157-9.285-41.038-21.411-59.42-18.14-58.708 2.617.569 6.687 9.212 8.394 13.462l-.453-8.997c2.471 2.593 7.493 9.537 8.792 17.425.057.457.117.893.178 1.296a25.539 25.539 0 00-.178-1.296c-.561-4.488-.829-11.024 1.713-8.98 2.802 2.252 7.142 16.613 8.963 23.512-.966-5.572-2.312-16.247.022-14.371 2.335 1.877 5.079 15.594 6.16 22.218-.576-5.259-1.262-15.402.606-13.901 1.868 1.502 3.64 13.798 4.293 19.759.279-3.933 1.07-11.61 2.004-10.86.934.751 2.862 13.173 3.71 19.29-.149-4.596-.002-13.623 1.773-12.963 1.776.66 2.906 10.329 3.249 15.082.318-3.582 1.536-10.277 3.87-8.4 2.335 1.877 8.745 13.425 11.658 18.964-.65-7.557-3.936-24.267-11.873-30.648 2.299-.071 7.735 1.613 11.089 8.914-.11-4.245-2.455-14.635-10.951-22.233-8.497-7.597 4.323.598 11.795 5.646.005-3.194-1.666-10.357-8.394-13.463-8.408-3.882-9.568-9.611.707-3.269.86-1.867.08-6.075-9.922-7.976-12.502-2.376-10.628-4.707-7.94-4.465 2.15.194 7.438 1.504 9.814 2.134-1.477-2.146-6.138-6.468-12.963-6.584-6.825-.115-13.518-.315-16.011-.401l13.676-1.475c-2.178-2.071-7.704-6.194-12.379-6.115-4.675.079-12.156.779-15.312 1.12l10.059-5.343c-.341-.924-1.558-2.553-4.052-3.716 2.805.55 6.086 1.164 8.614 1.628l.123-3.739 7.587 6.1-1.398-3.042 7.004 5.63-1.513-4.094 8.754 7.038-2.68-5.033 8.171 6.569-4.431-6.44c3.098.776 9.168 3.328 11.151 7.734l.522 1.65a7.325 7.325 0 00-.522-1.65l-1.92-6.069 6.527 11.003-.107-5.842 5.245 9.013-.576-5.259 5.36 10.064-.691-6.311 5.007 11.699-1.505-8.884 5.468 15.907.015-9.58c1.866 2.459 5.291 9.433 4.063 17.654l2.472-11.441 5.468 15.906c1.098-4.553 1.731-15.299-4.523-21.862-7.818-8.203-5.945-10.534 3.04-1.392.2-3.037-.662-9.933-5.706-13.221-6.304-4.109-10.866-2.02-11.096-4.124-.185-1.683 7.167.646 10.866 2.021-1.669-3.9-6.62-11.845-13.07-12.426-8.064-.727-17.648-.757-13.555-2.263 3.275-1.205 8.844-.245 11.22.386-1.984-1.915-7.985-5.844-16.119-6.243-10.168-.5-18.461-3.33-11.565-3.542 5.517-.169 9-.439 10.052-.552-1.595-1.602-6.889-4.579-15.305-3.671-10.521 1.135-19.067 10.572-19.298 8.468-.184-1.683 3.671-5.363 5.621-6.992-5.652 1.851-17.002 5.133-17.186 3.45-.184-1.683 9.205-6.669 13.922-8.952l-8.063-.726c2.03-2.525 8.146-7.265 16.372-6.024 8.226 1.241-1.712-1.057-7.71-2.361 2.575-2.406 9.898-6.815 18.591-5.198 8.693 1.616-4.088-1.688-11.565-3.542 5.847-1.695 18.801-4.263 23.844-.976 6.263 4.081-3.938-7.91-15.19-4.788 5.959-1.687 19.004-3.859 25.365.497 8.056 5.517-.576-5.259-10.275-6.341 4.948-.179 16.409.145 22.67 2.876 6.26 2.73-4.943-3.015-11.328-6.228l23.484 5.449c-3.694-4.569-14.332-13.248-27.331-11.42-16.249 2.285-31.331 5.508-43.979 21.241-12.647 15.732-21.302 19.327-15.796 11.283 3.438-5.023 9.284-10.176 13.408-13.394a91.149 91.149 0 002.98-2.21 68.91 68.91 0 00-2.98 2.21c-4.34 3.083-9.731 6.33-9.653 3.942.099-2.99 12.84-13.979 19.198-19.1-5.849 3.292-17.101 9.082-15.32 5.91 1.782-3.172 15.957-14.67 22.822-20.023-4.912 2.127-14.385 5.703-12.978 2.997 1.407-2.706 14.235-9.34 20.473-12.32-4.014.61-11.877 1.388-11.22-.386.657-1.773 8.465-6.944 12.287-9.307l-12.661 1.883c7.236-13.42 11.663-18.453 19.808-25.773-6.976-.079-15.019.883-23.824 9.357-3.257 3.135-6.619 7.297-10.07 12.816l1.643-13.668-6.803 15.634 1.658-14.015c-3.241 4.43-9.796 15.531-10.09 24.503-.368 11.215-3.532 16.345-4.684 5.827-.823-7.509-.1-11.23.509-12.496l.212-.353c-.067.083-.139.2-.212.353-3.045 5.128-8.226 16.601-6.138 24.278 2.673 9.823 2.888 21.507.216 11.684-2.138-7.858-2.591-12.315-2.55-13.561-1.487 4.241-3.904 14.896-1.674 23.596a754.848 754.848 0 014.877 20.227z"/><path d="M224.207 82.088c2.077-5.329 7.481-17.272 12.488-22.415l-2.418 9.6c-3.257 3.134-6.619 7.297-10.07 12.815z"/></g><path d="M306.502 250.673l-1.624-17.476 2.064 17.361 22.734-5.885-22.615 6.325 12.362 6.332-12.523-6.055 2.201 19.835-2.481-19.997-20.62 6.6 20.061-6.924-12.492-6.128 12.933 6.012z" fill="url(#paint0_radial)"/><g opacity=".7" transform="rotate(30.112 306.934 250.481)"><circle cx="306.934" cy="250.481" r="5.695" fill="url(#paint1_radial)" fill-opacity=".6"/><circle cx="306.934" cy="250.481" r="5.695" fill="url(#paint2_radial)" fill-opacity=".4"/><circle cx="306.934" cy="250.481" r="5.695" fill="url(#paint3_radial)" fill-opacity=".29"/></g><path d="M99.791 127.587l-4.9-17.68 5.332 17.48 22.301-10.258-22.097 10.688 13.888 4.23-14.002-3.915 5.93 20-6.248-20.115L80 138.618l19.36-10.832-13.985-3.994 14.416 3.795z" fill="url(#paint4_radial)"/><g opacity=".7" transform="rotate(19.927 100.201 127.308)"><circle cx="100.201" cy="127.308" r="5.953" fill="url(#paint5_radial)" fill-opacity=".6"/><circle cx="100.201" cy="127.308" r="5.953" fill="url(#paint6_radial)" fill-opacity=".4"/><circle cx="100.201" cy="127.308" r="5.953" fill="url(#paint7_radial)" fill-opacity=".29"/></g><defs><radialGradient id="paint0_radial" cx="0" cy="0" r="1" gradientUnits="userSpaceOnUse" gradientTransform="matrix(-9.79538 16.88977 -15.89627 -9.2192 307.838 251.193)"><stop stop-color="#fff"/><stop offset="1" stop-color="#fff" stop-opacity="0"/></radialGradient><radialGradient id="paint1_radial" cx="0" cy="0" r="1" gradientUnits="userSpaceOnUse" gradientTransform="rotate(83.66 13.54 296.704) scale(1.01113)"><stop offset=".268" stop-color="#fff"/><stop offset="1" stop-color="#fff" stop-opacity="0"/></radialGradient><radialGradient id="paint2_radial" cx="0" cy="0" r="1" gradientUnits="userSpaceOnUse" gradientTransform="rotate(83.918 14.174 295.927) scale(3.40815)"><stop stop-color="#fff"/><stop offset="1" stop-color="#fff" stop-opacity="0"/></radialGradient><radialGradient id="paint3_radial" cx="0" cy="0" r="1" gradientUnits="userSpaceOnUse" gradientTransform="rotate(88.668 25.28 282.318) scale(4.80272)"><stop offset=".453" stop-color="#fff"/><stop offset="1" stop-color="#fff" stop-opacity="0"/></radialGradient><radialGradient id="paint4_radial" cx="0" cy="0" r="1" gradientUnits="userSpaceOnUse" gradientTransform="matrix(-6.95585 19.18706 -18.05844 -6.5467 101.262 127.874)"><stop stop-color="#fff"/><stop offset="1" stop-color="#fff" stop-opacity="0"/></radialGradient><radialGradient id="paint5_radial" cx="0" cy="0" r="1" gradientUnits="userSpaceOnUse" gradientTransform="rotate(83.66 -21.018 119.63) scale(1.05693)"><stop offset=".268" stop-color="#fff"/><stop offset="1" stop-color="#fff" stop-opacity="0"/></radialGradient><radialGradient id="paint6_radial" cx="0" cy="0" r="1" gradientUnits="userSpaceOnUse" gradientTransform="rotate(83.918 -20.696 119.376) scale(3.56251)"><stop stop-color="#fff"/><stop offset="1" stop-color="#fff" stop-opacity="0"/></radialGradient><radialGradient id="paint7_radial" cx="0" cy="0" r="1" gradientUnits="userSpaceOnUse" gradientTransform="rotate(88.668 -15.051 114.933) scale(5.02023)"><stop offset=".453" stop-color="#fff"/><stop offset="1" stop-color="#fff" stop-opacity="0"/></radialGradient></defs></svg>