<svg width="19" height="14" fill="none" xmlns="http://www.w3.org/2000/svg"><g clip-path="url(#clip0_1038:18)"><path d="M15.3 1.247A14.903 14.903 0 0011.62.106a.056.056 0 00-.058.028 9.92 9.92 0 00-.458.94 13.759 13.759 0 00-4.132 0 9.52 9.52 0 00-.465-.94.058.058 0 00-.06-.028c-1.29.222-2.526.611-3.678 1.14a.053.053 0 00-.024.021C.402 4.767-.24 8.182.075 11.554c.001.017.01.032.023.042a14.987 14.987 0 004.513 2.282.058.058 0 00.063-.021c.348-.475.658-.975.924-1.502a.057.057 0 00-.032-.08 9.87 9.87 0 01-1.41-.671.058.058 0 01-.005-.096 6.78 6.78 0 00.28-.22.056.056 0 01.058-.008c2.958 1.35 6.16 1.35 9.083 0a.056.056 0 01.059.007c.09.075.185.15.28.22a.058.058 0 01-.004.097 9.26 9.26 0 01-1.41.67.058.058 0 00-.031.081c.27.526.58 1.026.922 1.501.014.02.04.029.063.022a14.937 14.937 0 004.52-2.282.058.058 0 00.024-.041c.377-3.899-.631-7.285-2.672-10.287a.046.046 0 00-.024-.021zM6.04 9.5c-.891 0-1.625-.818-1.625-1.822s.72-1.821 1.624-1.821c.912 0 1.639.825 1.625 1.821 0 1.004-.72 1.822-1.625 1.822zm6.004 0c-.89 0-1.624-.818-1.624-1.822s.72-1.821 1.624-1.821c.912 0 1.639.825 1.625 1.821 0 1.004-.713 1.822-1.625 1.822z" fill="#fff"/></g><defs><clipPath id="clip0_1038:18"><path fill="#fff" d="M0 0h18.073v14H0z"/></clipPath></defs></svg>