<svg width="18" height="14" fill="none" xmlns="http://www.w3.org/2000/svg"><g clip-path="url(#clip0_1038:12)"><path d="M15.314 3.52c.01.149.01.298.01.448 0 4.58-3.505 9.861-9.914 9.861v-.003a9.904 9.904 0 01-5.34-1.553 7.021 7.021 0 005.157-1.436A3.487 3.487 0 011.97 8.43c.522.1 1.06.08 1.573-.06A3.47 3.47 0 01.749 4.973v-.044a3.477 3.477 0 001.581.434A3.459 3.459 0 011.252.735a9.907 9.907 0 007.18 3.62 3.456 3.456 0 011.009-3.31 3.501 3.501 0 014.93.15 7.016 7.016 0 002.212-.842 3.482 3.482 0 01-1.531 1.917 6.96 6.96 0 002-.545 7.058 7.058 0 01-1.738 1.795z" fill="#fff"/></g><defs><clipPath id="clip0_1038:12"><path fill="#fff" d="M0 0h17.111v14H0z"/></clipPath></defs></svg>